<svg width="21" height="17" viewBox="0 0 21 17" fill="none" xmlns="http://www.w3.org/2000/svg">
<path d="M15.5464 0C15.433 0 15.3176 0.0029435 15.2033 0.00850472C12.5673 0.138048 10.774 2.64747 10.7563 2.67266L10.4943 3.04559L10.2311 2.67364C10.2133 2.64878 8.40932 0.147862 5.77196 0.0287867C5.67135 0.024534 5.56974 0.0222446 5.46979 0.0222446C2.1087 0.0222446 0.146446 2.50091 0.00659649 4.83303C-0.144321 7.36109 2.32569 9.94379 4.19672 11.6668C6.56981 13.8563 8.08904 15.0513 9.19845 15.9241C9.71459 16.33 10.1395 16.6644 10.5262 17C10.9092 16.665 11.3304 16.3307 11.8415 15.9244C12.9482 15.0451 14.4641 13.8409 16.8322 11.6367C18.6955 9.90388 21.1538 7.30941 20.9925 4.78952C20.8432 2.46755 18.884 0 15.5464 0ZM18.5459 8.5103C17.6884 9.61143 16.6849 10.5447 16.2027 10.9932C13.8598 13.1742 12.3603 14.3653 11.2657 15.2351L11.2291 15.2642C11.0517 15.4052 10.8847 15.5381 10.7257 15.6656L10.5242 15.8279L10.3216 15.6666C10.1486 15.5289 9.96612 15.3853 9.77093 15.2319C8.67326 14.3682 7.17013 13.186 4.82253 11.0197C4.33825 10.5738 3.33113 9.64643 2.46889 8.54858C1.37692 7.15827 0.85475 5.92564 0.916794 4.88471C1.03518 2.91015 2.63691 0.911058 5.46979 0.911058C5.55531 0.911058 5.64251 0.913021 5.72904 0.91662C7.89386 1.01443 9.46272 3.15387 9.47849 3.17546L10.498 4.6181L11.5092 3.17349C11.5129 3.16793 11.8975 2.6298 12.5632 2.07139C13.4271 1.34647 14.3565 0.940173 15.2502 0.896338C15.3485 0.891431 15.4484 0.888813 15.5464 0.888813C18.3574 0.888813 19.9562 2.87875 20.0826 4.84415C20.149 5.88214 19.6319 7.11542 18.5459 8.5103Z" fill="#333333"/>
</svg>
