<svg width="22" height="23" viewBox="0 0 22 23" fill="none" xmlns="http://www.w3.org/2000/svg">
<path d="M18.2667 4.45956L18.267 5.89766H1.78446V4.45925C1.78446 3.66645 2.42955 3.02136 3.22243 3.02136H5.89774V3.84072C5.89774 3.95234 5.94109 4.05748 6.01978 4.13626C6.0983 4.21487 6.20315 4.25826 6.31444 4.25826H6.31446C6.54451 4.25817 6.73189 4.07111 6.73198 3.84105L6.73234 3.02136H13.3191V3.84072C13.3191 3.95234 13.3625 4.05748 13.4412 4.13626C13.5197 4.21488 13.6246 4.25826 13.736 4.25826H13.736C13.966 4.25817 14.1532 4.07108 14.1533 3.84105L14.1536 3.02136H16.8286C17.6215 3.02136 18.2666 3.6666 18.2667 4.45956ZM8.89118 18.9272L9.28408 19.5035L3.22273 19.5037C2.4297 19.5037 1.78446 18.8585 1.78446 18.0656V6.73175H18.2669V8.64866L17.7455 8.41142C16.8162 7.9886 15.8228 7.77417 14.7934 7.77417C12.8869 7.77417 11.0943 8.51672 9.74625 9.86485C9.65162 9.95948 9.55681 10.0599 9.46431 10.1635L9.4643 10.1635L9.23623 10.4192L9.23605 10.4191L9.2332 10.423L9.03055 10.6997C8.13099 11.9281 7.65549 13.3848 7.65549 14.912C7.65549 16.3528 8.08282 17.7412 8.89118 18.9272ZM19.24 9.32853L19.1012 9.21786V4.45925C19.1012 3.20608 18.0818 2.18659 16.8286 2.18659H14.1536V1.36693C14.1536 1.13692 13.9664 0.95 13.7363 0.95C13.5062 0.95 13.319 1.13713 13.319 1.36731V2.18659H6.73213V1.36693C6.73213 1.1369 6.54486 0.95 6.31467 0.95C6.0846 0.95 5.89766 1.13716 5.89766 1.36731V2.18659H3.22273C1.96948 2.18659 0.95 3.20624 0.95 4.45955L0.950152 18.0652C0.950152 19.3186 1.96947 20.3382 3.2225 20.3382L10.1537 20.338L10.2559 20.4222C11.5291 21.4719 13.1406 22.05 14.7934 22.05C18.7293 22.05 21.9313 18.848 21.9313 14.9121C21.9312 12.7277 20.9503 10.6924 19.24 9.32854L19.2088 9.36763L19.24 9.32853ZM20.993 14.9121C20.993 15.749 20.8291 16.561 20.5057 17.3256C20.1935 18.0639 19.7466 18.7268 19.1773 19.2961C18.608 19.8654 17.9451 20.3123 17.2067 20.6246C16.4422 20.9479 15.6303 21.1119 14.7934 21.1119C13.9564 21.1119 13.1445 20.9479 12.3799 20.6245C11.6415 20.3122 10.9786 19.8653 10.4094 19.296C9.84015 18.7268 9.39327 18.0639 9.08101 17.3256C8.75759 16.5609 8.59364 15.749 8.59364 14.912C8.59364 14.0751 8.75759 13.2632 9.08093 12.4987C9.3932 11.7604 9.84007 11.0974 10.4094 10.5281C10.9787 9.95883 11.6416 9.51195 12.3799 9.19969C13.1445 8.87635 13.9564 8.7124 14.7934 8.7124C15.6303 8.7124 16.4422 8.87635 17.2067 9.19969C17.9451 9.51195 18.608 9.9589 19.1773 10.5281C19.7466 11.0974 20.1935 11.7604 20.5057 12.4987C20.8291 13.2632 20.993 14.0751 20.993 14.9121Z" fill="#333333" stroke="#333333" stroke-width="0.1"/>
</svg>
