<?xml version="1.0" encoding="utf-8"?>
<!-- Generator: Adobe Illustrator 25.1.0, SVG Export Plug-In . SVG Version: 6.00 Build 0)  -->
<svg version="1.1" id="Camada_1" xmlns="http://www.w3.org/2000/svg" xmlns:xlink="http://www.w3.org/1999/xlink" x="0px" y="0px"
	 viewBox="0 0 1920 1080" style="enable-background:new 0 0 1920 1080;" xml:space="preserve">
<style type="text/css">
	.st0{fill:#B4DEBA;}
	.st1{fill-rule:evenodd;clip-rule:evenodd;fill:#4C9462;}
</style>
<g>
	<path class="st0" d="M481.25,743.21h19.12c11.95,0,26.29-2.87,26.29-17.21c0-7.74-3.35-13.29-15.77-15.3
		c8.7-2.96,12.43-8.13,12.43-13.86c0-14.82-15.77-16.73-25.81-16.73h-24.86v1.91h1.91c5.74,0,6.69,3.82,6.69,9.56V743.21
		L481.25,743.21z M489.85,709.27v-24.86c1.91-0.48,4.78-0.96,7.17-0.96c7.65,0,17.21,3.73,17.21,12.91c0,8.6-7.74,12.91-15.3,12.91
		H489.85L489.85,709.27z M498.94,739.86c-2.96,0-6.12-0.48-9.08-1.34v-25.43h9.08c11.95,0,18.16,4.68,18.16,13.38
		C517.1,735.18,510.5,739.86,498.94,739.86L498.94,739.86z M540.71,743.21h32.98c3.82,0,6.12-1.82,7.17-4.78l3.35-9.08l-1.91-0.48
		c-2.96,7.65-7.55,10.52-16.25,10.52h-16.73v-26.77h25.81v-3.82h-25.81v-24.86h17.78c7.65,0,11.95,3.35,11.95,10.99h1.91v-7.17
		c0-3.82-1.53-7.65-8.13-7.65h-40.73v1.91h1.91c5.74,0,6.69,3.82,6.69,9.56V743.21L540.71,743.21z M646.45,743.69
		c1.43,0,2.77-0.19,3.82-0.48v-1.91c-5.35-0.48-7.46-2.87-10.52-10.04l-21.03-51.15h-2.87l-26.77,63.1h4.3l7.65-18.16h26.77
		l2.39,6.21C634.31,742.35,642.15,743.69,646.45,743.69L646.45,743.69z M602.47,721.22l11.95-27.72l11.47,27.72H602.47
		L602.47,721.22z M679.05,744.16c19.6,0,24.38-9.46,24.38-28.2v-35.85h-3.82v35.85c0,16.83-4.78,24.38-19.41,24.38
		c-12.62,0-16.92-8.13-16.92-21.51v-27.25c0-9.56-1.91-11.47-8.6-11.47h-8.6v1.91h1.91c5.74,0,6.69,3.82,6.69,9.56v24.38
		C654.67,734.7,660.41,744.16,679.05,744.16L679.05,744.16z M735.36,743.21h8.6v-59.27h21.51v-3.82h-44.45
		c-6.6,0-8.13,3.82-8.13,7.65v7.17h1.91c0-7.65,4.3-10.99,11.95-10.99h8.6V743.21L735.36,743.21z M795.49,743.21h8.6v-26.77
		l22.37-36.33h-4.3l-19.98,32.03l-13.86-21.51c-3.25-5.26-7.27-10.52-14.34-10.52h-8.6v1.91c6.79,0.48,9.94,4.88,13.86,10.52
		l16.25,24.57V743.21L795.49,743.21z"/>
	<path class="st0" d="M424.01,729.59c-1.58,5.68-3.22,9.43-4.9,11.22c-1.67,1.79-4.01,2.7-7,2.7c-2.98,0-5.42-1.03-7.31-3.03
		c-1.89-2.03-3.56-5.61-4.99-10.75l-14.64-49.6h13.92l15.47,53.44c0.14,0.43,0.36,0.76,0.69,1.05c0.33,0.29,0.67,0.41,1.05,0.41
		c0.38-0.02,0.69-0.17,0.96-0.41c0.24-0.24,0.45-0.57,0.57-0.98l6.02-21.68l-9.29-31.83h13.92l15.45,53.44
		c0.14,0.45,0.36,0.84,0.67,1.07c0.31,0.26,0.6,0.38,0.88,0.38c0.36,0,0.72-0.12,1.05-0.41c0.31-0.29,0.55-0.62,0.69-1.05
		l15.45-53.44h5.61l-14.49,49.45c-1.53,5.23-3.2,8.86-5.04,10.89c-1.81,2.01-4.23,3.03-7.26,3.03c-2.99,0-5.42-1-7.28-2.98
		c-1.86-1.98-3.58-5.56-5.18-10.79l-2.58-8.62L424.01,729.59L424.01,729.59z"/>
	<path class="st1" d="M606.75,460.15c54.02,0,97.8,42.88,97.8,95.77s-43.79,95.77-97.8,95.77s-97.8-42.88-97.8-95.77
		S552.74,460.15,606.75,460.15L606.75,460.15z"/>
	<path class="st0" d="M608.37,536.84L608.37,536.84c-1.93,0-3.49-1.56-3.49-3.49v-33.27c0-1.93,1.56-3.49,3.49-3.49l0,0
		c1.93,0,3.49,1.56,3.49,3.49v33.27C611.86,535.28,610.28,536.84,608.37,536.84L608.37,536.84z"/>
	<path class="st0" d="M637.57,595.66c-11.82,0-22.57-6.33-28.36-16.42c-1.05-1.83-0.29-4.15,1.66-4.97l0,0
		c1.62-0.68,3.51-0.08,4.36,1.44c4.54,7.97,13.01,12.97,22.34,12.97c7.05,0,13.63-2.8,18.52-7.89c4.89-5.08,7.44-11.76,7.17-18.83
		c-0.51-13.3-11.32-24.15-24.62-24.68c-0.31-0.02-0.64-0.02-0.95-0.02c-0.04,0-0.08,0-0.12,0c-10.03,0-19.13,6.12-23.24,15.62
		l-14.94,34.55c-0.58,1.34-1.85,2.22-3.31,2.28c-1.46,0.06-2.8-0.7-3.51-1.99l-16.17-29.98l-16.15,29.98
		c-0.68,1.29-2.06,2.06-3.53,1.99c-1.46-0.08-2.75-0.99-3.31-2.34l-34.34-81.49c-0.74-1.77,0.12-3.82,1.89-4.56l0,0
		c1.77-0.74,3.82,0.12,4.56,1.89l31.77,75.28l15.78-29.25c0.66-1.23,1.95-1.99,3.33-1.99c1.4,0,2.67,0.76,3.33,1.99l15.85,29.37
		l12.33-28.53c5.2-12.06,16.83-19.83,29.64-19.83c0.06,0,0.1,0,0.16,0c0.41,0,0.8,0.02,1.21,0.02c16.91,0.68,30.66,14.47,31.3,31.38
		c0.35,8.98-2.9,17.49-9.12,23.94C654.91,592.09,646.53,595.66,637.57,595.66L637.57,595.66z"/>
	<path class="st0" d="M606.29,453.77c-56.33,0-101.98,45.65-101.98,101.98c0,56.33,45.65,101.98,101.98,101.98
		s101.98-45.65,101.98-101.98C708.27,499.42,662.6,453.77,606.29,453.77L606.29,453.77z M593.34,648.63
		c-51.3-7.15-87.1-54.54-79.95-105.84c7.15-51.3,54.54-87.1,105.84-79.95s87.1,54.54,79.95,105.84
		C692.03,619.98,644.64,655.78,593.34,648.63L593.34,648.63z"/>
</g>
</svg>
